<?xml version="1.0" encoding="UTF-8"?>
<!DOCTYPE svg PUBLIC "-//W3C//DTD SVG 1.1//EN" "http://www.w3.org/Graphics/SVG/1.1/DTD/svg11.dtd">
<!-- Creator: CorelDRAW 2019 (64-Bit) -->
<svg xmlns="http://www.w3.org/2000/svg" xml:space="preserve" width="60px" height="47px" version="1.1" style="shape-rendering:geometricPrecision; text-rendering:geometricPrecision; image-rendering:optimizeQuality; fill-rule:evenodd; clip-rule:evenodd"
viewBox="0 0 60 47.03"
 xmlns:xlink="http://www.w3.org/1999/xlink">
 <defs>
  <style type="text/css">
   <![CDATA[
    .str0 {stroke:#008DD2;stroke-width:0.49;stroke-miterlimit:22.9256}
    .fil0 {fill:#008DD2}
   ]]>
  </style>
 </defs>
 <g id="Layer_x0020_1">
  <metadata id="CorelCorpID_0Corel-Layer"/>
  <path class="fil0 str0" d="M1.98 13.95c0,0 14.74,-12.64 35.52,-1.77 1.48,0.77 2.88,1.72 4.19,2.77l12.02 -10.69 -1.04 -1.01 5.33 -1.18 -1.96 4.84 -1.21 -1.31 -11.7 10.58c3,2.69 5.45,5.8 7.13,8.19 7.18,10.21 4.05,20.63 4.05,20.63 0,0 0.67,-14.87 -13.58,-26.65l-8.85 8 -0.51 2.32 -3.98 3.69 0.16 -3.43 -3.48 -0.28 3.89 -3.56 2.53 -0.17 8.73 -7.77c-0.56,-0.43 -1.15,-0.85 -1.75,-1.26 -17.61,-12.06 -35.49,-1.94 -35.49,-1.94zm25.76 14.04l-1.36 -0.07 2.03 -1.9 1.44 0.06 -2.11 1.91zm0.72 0.81l0.03 1.36 1.95 -1.99 -0.03 -1.44 -1.95 2.07z"/>
 </g>
</svg>
